<svg width="20" height="20" viewBox="0 0 20 20" fill="none" xmlns="http://www.w3.org/2000/svg">
<path fill-rule="evenodd" clip-rule="evenodd" d="M16.29 10.9815C16.606 10.9414 16.8508 10.6675 16.8508 10.3359C16.8508 9.97679 16.5635 9.6853 16.2096 9.6853H4.93974L9.01123 5.57059L9.06882 5.50414C9.26081 5.24968 9.24174 4.88394 9.01294 4.65014C8.76333 4.39595 8.35729 4.39508 8.10683 4.6484L2.93519 9.87529L2.87816 9.94074C2.79139 10.0552 2.74628 10.195 2.74628 10.3359C2.74628 10.4201 2.76252 10.5043 2.795 10.5841C2.89416 10.8278 3.12753 10.9866 3.38739 10.9866H16.2096L16.29 10.9815ZM9.013 16.0215C9.26261 15.7664 9.26261 15.3544 9.01129 15.101L6.15877 12.2182L6.09291 12.16C5.841 11.966 5.48147 11.9862 5.25266 12.22C5.12786 12.3475 5.06546 12.5132 5.06546 12.6789C5.06546 12.8463 5.12786 13.0129 5.25437 13.1404L8.10604 16.0232L8.17191 16.0813C8.42394 16.2747 8.7842 16.2545 9.013 16.0215Z" fill="#130F26"/>
</svg>
