<svg width="17" height="16" viewBox="0 0 17 16" fill="none" xmlns="http://www.w3.org/2000/svg">
<path fill-rule="evenodd" clip-rule="evenodd" d="M13.1542 1.12898C14.4191 1.52233 15.4709 2.42585 16.065 3.62949C16.7598 5.08833 16.8544 6.7693 16.3278 8.29945C15.8431 9.70807 15.0484 10.985 14.0047 12.0326C13.3203 12.736 12.5828 13.3837 11.7991 13.9696L11.7576 14.0048C11.4972 14.1801 11.1471 14.1113 10.9694 13.8499C10.8791 13.7236 10.8428 13.5655 10.8689 13.4115C10.8949 13.2576 10.9811 13.1209 11.1077 13.0328C11.8431 12.4787 12.5365 11.8688 13.1819 11.2085C14.1114 10.2938 14.8212 9.17295 15.2561 7.93318C15.6744 6.69779 15.5897 5.34321 15.021 4.17185C14.5634 3.25037 13.757 2.55859 12.7878 2.25597C11.5516 1.86216 10.2048 2.1009 9.17177 2.89695C8.96641 3.05192 8.68574 3.05192 8.48037 2.89695C7.44785 2.09979 6.10049 1.86096 4.86435 2.25597C3.88864 2.5519 3.07425 3.2416 2.61039 4.16481C2.05451 5.3353 1.97499 6.68211 2.38914 7.91204C2.82587 9.14884 3.5355 10.267 4.46334 11.1803C5.83431 12.5195 7.34609 13.7006 8.97127 14.7021C9.17797 14.8482 9.26886 15.1132 9.19644 15.3587C9.12401 15.6041 8.90472 15.7741 8.65322 15.7798C8.53986 15.7805 8.42895 15.7461 8.33518 15.6812C6.64223 14.6381 5.06778 13.4074 3.64057 12.0115C2.59101 10.9674 1.79344 9.6895 1.31055 8.27832C0.802152 6.75028 0.906514 5.07954 1.60094 3.62949C2.19511 2.42585 3.24688 1.52233 4.51174 1.12898C5.966 0.671373 7.54382 0.882266 8.83299 1.70657C10.1222 0.882266 11.7 0.671373 13.1542 1.12898ZM12.5873 6.52444C12.5584 5.8735 12.1329 5.31052 11.5225 5.1157C11.2956 4.97137 11.1948 4.68778 11.2784 4.4289C11.362 4.17001 11.6084 4.0028 11.8751 4.02393C12.9061 4.35548 13.6399 5.28647 13.735 6.38357C13.7545 6.53696 13.7128 6.69191 13.6192 6.81371C13.5256 6.93552 13.388 7.014 13.2372 7.03158C12.9205 7.07327 12.6302 6.84674 12.5873 6.52444Z" fill="#130F26"/>
</svg>
