<svg width="20" height="19" viewBox="0 0 20 19" fill="none" xmlns="http://www.w3.org/2000/svg">
<path d="M17.2672 16.3203L14.5872 13.7001V13.7001L14.5244 13.6046C14.4076 13.4883 14.2479 13.4228 14.0812 13.4228C13.9145 13.4228 13.7548 13.4883 13.638 13.6046V13.6046C11.3604 15.6941 7.85092 15.8077 5.43697 13.87C3.02303 11.9323 2.45373 8.54466 4.10662 5.95369C5.75952 3.36272 9.1217 2.37245 11.9634 3.63963C14.8051 4.9068 16.2445 8.03821 15.327 10.9571C15.2609 11.168 15.3149 11.3973 15.4687 11.5587C15.6224 11.72 15.8525 11.789 16.0724 11.7395C16.2922 11.69 16.4683 11.5296 16.5344 11.3187V11.3187C17.6312 7.85487 15.9747 4.12724 12.6365 2.54726C9.29824 0.967283 5.28013 2.00911 3.18145 4.9988C1.08277 7.98848 1.53335 12.0288 4.2417 14.506C6.95005 16.9833 11.1034 17.1541 14.0149 14.9079L16.3878 17.2279C16.6329 17.4664 17.0291 17.4664 17.2742 17.2279C17.519 16.9859 17.519 16.5964 17.2742 16.3545V16.3545L17.2672 16.3203Z" fill="#1B153D"/>
</svg>
